<svg width="1440" height="105" viewBox="0 0 1440 105" fill="none" xmlns="http://www.w3.org/2000/svg">
<path d="M0 71.9792C72.6281 32.5664 134.974 46.2356 247 71.9792C355.692 95.6714 399.745 92.4687 455.5 64.4792C622.044 -21.0002 719.745 -16.8021 899.5 56.9792C971.564 84.2493 1015.26 85.592 1100.5 56.9792C1181.12 30.1417 1227.56 33.8186 1311.5 56.9792C1363.63 68.1905 1392.87 69.667 1445 64.4792M7 88.9792C28.0044 74.9312 39.5631 70.2319 60 64.4792M117.5 61.4792C123.5 60.6459 142 61.5792 168 71.9792M215 78.4792C231.667 80.1459 272.5 86.0792 302.5 96.4792C332.5 106.879 373.333 104.146 390 101.479M435.5 88.9792C450 83.9792 480.8 72.0792 488 64.4792M507 78.4792C539.5 58.3126 621.9 21.2792 691.5 34.4792M675.5 15.9792C698.5 12.1459 754.7 10.4793 795.5 34.4792M930 86.4792C932.667 89.1459 943.5 95.5792 965.5 99.9792M987.5 92.4792C1002.33 94.1816 1040.3 93.0649 1073.5 74.9792M1091.5 74.9792L1114.5 66.4792M1042.5 99.9792C1050.67 99.3126 1069.8 95.6792 1081 86.4792M1242 51.9792L1270 56.9792M1287 64.4792C1311 70.3125 1367.2 81.2792 1400 78.4792" stroke="#248512" stroke-opacity="0.5" stroke-width="2" stroke-linecap="round"/>
</svg>
